<svg xmlns="http://www.w3.org/2000/svg" xml:space="preserve" viewBox="0 0 512 512"><path d="M495.304 72.348H16.696C7.475 72.348 0 79.823 0 89.044v333.913c0 9.22 7.475 16.696 16.696 16.696h478.609c9.22 0 16.696-7.475 16.696-16.696V89.044c-.001-9.221-7.476-16.696-16.697-16.696zm-16.695 333.913H178.087v-16.696c0-9.22-7.475-16.696-16.696-16.696s-16.696 7.475-16.696 16.696v16.696H33.391V105.739h111.304v16.696c0 9.22 7.475 16.696 16.696 16.696s16.696-7.475 16.696-16.696v-16.696h300.522v300.522z"/><path d="M161.391 266.017c-9.22 0-16.696 7.475-16.696 16.696v53.426c0 9.22 7.475 16.696 16.696 16.696s16.696-7.475 16.696-16.696v-53.426c0-9.22-7.475-16.696-16.696-16.696zM161.391 159.165c-9.22 0-16.696 7.475-16.696 16.696v53.426c0 9.22 7.475 16.696 16.696 16.696s16.696-7.475 16.696-16.696v-53.426c0-9.221-7.475-16.696-16.696-16.696zM261.565 139.13c-27.618 0-50.087 22.469-50.087 50.087 0 27.618 22.469 50.087 50.087 50.087 27.618 0 50.087-22.469 50.087-50.087 0-27.618-22.469-50.087-50.087-50.087zm0 66.783c-9.206 0-16.696-7.49-16.696-16.696s7.49-16.696 16.696-16.696c9.206 0 16.696 7.49 16.696 16.696s-7.49 16.696-16.696 16.696zM395.13 272.696c-27.618 0-50.087 22.47-50.087 50.087 0 27.618 22.469 50.087 50.087 50.087s50.087-22.469 50.087-50.087-22.469-50.087-50.087-50.087zm0 66.782c-9.206 0-16.696-7.49-16.696-16.696 0-9.206 7.49-16.696 16.696-16.696s16.696 7.49 16.696 16.696c0 9.207-7.49 16.696-16.696 16.696zM410.981 173.371c-6.519-6.52-17.091-6.52-23.611 0L245.704 315.038c-6.519 6.52-6.519 17.091 0 23.611a16.644 16.644 0 0 0 11.805 4.891c4.272 0 8.546-1.63 11.805-4.891l141.667-141.667c6.52-6.52 6.52-17.091 0-23.611z"/></svg>