<svg xmlns="http://www.w3.org/2000/svg" xml:space="preserve" viewBox="0 0 512.004 512.004"><path d="M499.204.002h-76.8c-7.074 0-12.8 5.726-12.8 12.8 0 7.074 5.726 12.8 12.8 12.8h45.901L3.75 490.148c-5.001 5-5.001 13.099 0 18.099 2.5 2.509 5.777 3.755 9.054 3.755s6.554-1.246 9.054-3.746L486.404 43.701v45.901c0 7.074 5.726 12.8 12.8 12.8 7.074 0 12.8-5.726 12.8-12.8v-76.8c0-7.074-5.726-12.8-12.8-12.8z"/><path d="M448.004 128.002c-7.074 0-12.8 5.726-12.8 12.8v358.4c0 7.074 5.726 12.8 12.8 12.8 7.074 0 12.8-5.726 12.8-12.8v-358.4c0-7.074-5.726-12.8-12.8-12.8zM345.604 230.402c-7.074 0-12.8 5.726-12.8 12.8v256c0 7.074 5.726 12.8 12.8 12.8 7.074 0 12.8-5.726 12.8-12.8v-256c0-7.074-5.726-12.8-12.8-12.8zM243.204 332.802c-7.074 0-12.8 5.726-12.8 12.8v153.6c0 7.074 5.726 12.8 12.8 12.8s12.8-5.726 12.8-12.8v-153.6c0-7.074-5.726-12.8-12.8-12.8zM140.804 435.202c-7.074 0-12.8 5.726-12.8 12.8v51.2c0 7.074 5.726 12.8 12.8 12.8 7.074 0 12.8-5.726 12.8-12.8v-51.2c0-7.074-5.726-12.8-12.8-12.8z"/></svg>