<svg width="1em" height="1em" viewBox="0 0 24 24" xmlns="http://www.w3.org/2000/svg"><defs><clipPath id="a"><path style="fill:none" d="M0 0h24v24H0z"/></clipPath></defs><g style="clip-path:url(#a)"><path d="M12 22.71A10.71 10.71 0 1 1 22.71 12 10.73 10.73 0 0 1 12 22.71Zm0-19.92A9.21 9.21 0 1 0 21.21 12 9.22 9.22 0 0 0 12 2.79Z"/><path d="M12 16.77A4.77 4.77 0 1 1 16.77 12 4.78 4.78 0 0 1 12 16.77Zm0-8A3.27 3.27 0 1 0 15.27 12 3.28 3.28 0 0 0 12 8.73Z"/><path d="M12 8.73a.76.76 0 0 1-.75-.73V2a.75.75 0 1 1 1.5 0v6a.76.76 0 0 1-.75.73ZM12 22.71a.76.76 0 0 1-.75-.75V16a.75.75 0 0 1 1.5 0v6a.76.76 0 0 1-.75.71ZM8 12.75H2a.75.75 0 1 1 0-1.5h6a.75.75 0 0 1 0 1.5ZM22 12.75h-6a.75.75 0 0 1 0-1.5h6a.75.75 0 0 1 0 1.5Z"/></g></svg>